# xmcd
#
# Track frame offsets:
#	150
#	13672
#	26752
#	39572
#	51630
#	64245
#	73927
#	90715
#	101682
#	111415
#	122285
#	134200
#	144465
#	155760
#	168602
#	180295
#
# Disc length: 2534 seconds
#
# Revision: 1
# Processed by: cddbd v1.5.1PL0 Copyright (c) Steve Scherf et al.
# Submitted via: CDex 1.50Beta5
#
DISCID=f109e410
DTITLE=堀江美都子 - テレビアニメスーパーヒストリーVol.8 けろっこデメタンから新造人間キャシャーン
DYEAR=1998
DGENRE=
TTITLE0=堀江美都子/けろっこデメタン
TTITLE1=堀江美都子/まけるなデメタン
TTITLE2=ミッチーとチャタラーズ/緑の陽だまり
TTITLE3=ミッチーとチャタラーズ/ロッキーとポリー
TTITLE4=大杉久美子/ジャングル黒べえの歌
TTITLE5=大杉久美子/ウラウラ・タムタム・ベッカンコ?
TTITLE6=内藤はるみ/ドラえもん
TTITLE7=内藤はるみ/ドラえもんルンバ
TTITLE8=シンガーズ・スリー/わんさかワンサくん
TTITLE9=ロイヤル・ナイツ/ピンコラ音頭
TTITLE10=ヤング・スターズ/ミクロイドS
TTITLE11=ヤング・スターズ/ヤンマだ、アゲハだ、マメゾウだ
TTITLE12=大杉久美子/幸せを呼ぶリミットちゃん
TTITLE13=大杉久美子/センチなリミットちゃん
TTITLE14=ささきいさお/たたかえ!キャシャーン
TTITLE15=水木一郎/おれは新造人間
EXTD=
EXTT0=
EXTT1=
EXTT2=
EXTT3=
EXTT4=
EXTT5=
EXTT6=
EXTT7=
EXTT8=
EXTT9=
EXTT10=
EXTT11=
EXTT12=
EXTT13=
EXTT14=
EXTT15=
PLAYORDER=
